<svg xmlns="http://www.w3.org/2000/svg" xmlns:xlink="http://www.w3.org/1999/xlink" width="112.86" height="31.5" viewBox="0 0 112.86 31.5">
  <defs>
    <filter id="Path_37306">
      <feOffset dy="3" input="SourceAlpha"/>
      <feGaussianBlur stdDeviation="3" result="blur"/>
      <feFlood flood-opacity="0.161" result="color"/>
      <feComposite operator="out" in="SourceGraphic" in2="blur"/>
      <feComposite operator="in" in="color"/>
      <feComposite operator="in" in2="SourceGraphic"/>
    </filter>
    <filter id="Path_37310">
      <feOffset dy="3" input="SourceAlpha"/>
      <feGaussianBlur stdDeviation="3" result="blur-2"/>
      <feFlood flood-opacity="0.161" result="color-2"/>
      <feComposite operator="out" in="SourceGraphic" in2="blur-2"/>
      <feComposite operator="in" in="color-2"/>
      <feComposite operator="in" in2="SourceGraphic"/>
    </filter>
  </defs>
  <g id="Group_35604" data-name="Group 35604" transform="translate(-18.52 -38.5)">
    <g data-type="innerShadowGroup">
      <path id="Path_37306-2" data-name="Path 37306" d="M15.255-31.5C6.03-31.5,2.52-28.26,2.52-19.62v7.74C2.52-3.24,6.03,0,15.255,0H35.6a1.046,1.046,0,0,0,1.17-1.17V-6.435a1.046,1.046,0,0,0-1.17-1.17H15.57c-3.915,0-4.86-1.035-4.86-5.085v-6.12c0-4.05.945-5.085,4.86-5.085H35.6a1.046,1.046,0,0,0,1.17-1.17V-30.33A1.046,1.046,0,0,0,35.6-31.5Zm27.495,0a1.193,1.193,0,0,0-1.35,1.35V-1.17A1.046,1.046,0,0,0,42.57,0h5.85a1.046,1.046,0,0,0,1.17-1.17V-9.63h12.6l6.615,9a1.482,1.482,0,0,0,1.44.63h6.93a.793.793,0,0,0,.675-1.305l-7.245-9.18c4.5-.99,6.345-4.005,6.345-8.955v-2.745c0-6.075-2.79-9.315-9.855-9.315Zm6.84,7.875c0-.405.18-.585.54-.585H65.475c2.475,0,3.285.99,3.285,3.105v1.935c0,2.115-.81,3.105-3.285,3.105H49.59ZM93.87-31.5c-9.225,0-12.735,3.24-12.735,11.88v7.74C81.135-3.24,84.645,0,93.87,0h20.34a1.046,1.046,0,0,0,1.17-1.17V-6.435a1.046,1.046,0,0,0-1.17-1.17H94.185c-3.915,0-4.86-1.035-4.86-5.085v-6.12c0-4.05.945-5.085,4.86-5.085H114.21a1.046,1.046,0,0,0,1.17-1.17V-30.33a1.046,1.046,0,0,0-1.17-1.17Z" transform="translate(16 70)" fill="#f15b00"/>
      <g transform="matrix(1, 0, 0, 1, 18.52, 38.5)" filter="url(#Path_37306)">
        <path id="Path_37306-3" data-name="Path 37306" d="M15.255-31.5C6.03-31.5,2.52-28.26,2.52-19.62v7.74C2.52-3.24,6.03,0,15.255,0H35.6a1.046,1.046,0,0,0,1.17-1.17V-6.435a1.046,1.046,0,0,0-1.17-1.17H15.57c-3.915,0-4.86-1.035-4.86-5.085v-6.12c0-4.05.945-5.085,4.86-5.085H35.6a1.046,1.046,0,0,0,1.17-1.17V-30.33A1.046,1.046,0,0,0,35.6-31.5Zm27.495,0a1.193,1.193,0,0,0-1.35,1.35V-1.17A1.046,1.046,0,0,0,42.57,0h5.85a1.046,1.046,0,0,0,1.17-1.17V-9.63h12.6l6.615,9a1.482,1.482,0,0,0,1.44.63h6.93a.793.793,0,0,0,.675-1.305l-7.245-9.18c4.5-.99,6.345-4.005,6.345-8.955v-2.745c0-6.075-2.79-9.315-9.855-9.315Zm6.84,7.875c0-.405.18-.585.54-.585H65.475c2.475,0,3.285.99,3.285,3.105v1.935c0,2.115-.81,3.105-3.285,3.105H49.59ZM93.87-31.5c-9.225,0-12.735,3.24-12.735,11.88v7.74C81.135-3.24,84.645,0,93.87,0h20.34a1.046,1.046,0,0,0,1.17-1.17V-6.435a1.046,1.046,0,0,0-1.17-1.17H94.185c-3.915,0-4.86-1.035-4.86-5.085v-6.12c0-4.05.945-5.085,4.86-5.085H114.21a1.046,1.046,0,0,0,1.17-1.17V-30.33a1.046,1.046,0,0,0-1.17-1.17Z" transform="translate(-2.52 31.5)" fill="#fff"/>
      </g>
    </g>
    <g data-type="innerShadowGroup">
      <path id="Path_37310-2" data-name="Path 37310" d="M42.75-31.5a1.193,1.193,0,0,0-1.35,1.35V-1.17A1.046,1.046,0,0,0,42.57,0h5.85a1.046,1.046,0,0,0,1.17-1.17V-9.63h12.6l6.615,9a1.482,1.482,0,0,0,1.44.63h6.93a.793.793,0,0,0,.675-1.305l-7.245-9.18c4.5-.99,6.345-4.005,6.345-8.955v-2.745c0-6.075-2.79-9.315-9.855-9.315Zm6.84,7.875c0-.405.18-.585.54-.585H65.475c2.475,0,3.285.99,3.285,3.105v1.935c0,2.115-.81,3.105-3.285,3.105H49.59Z" transform="translate(16 70)" fill="#191c20"/>
      <g transform="matrix(1, 0, 0, 1, 18.52, 38.5)" filter="url(#Path_37310)">
        <path id="Path_37310-3" data-name="Path 37310" d="M42.75-31.5a1.193,1.193,0,0,0-1.35,1.35V-1.17A1.046,1.046,0,0,0,42.57,0h5.85a1.046,1.046,0,0,0,1.17-1.17V-9.63h12.6l6.615,9a1.482,1.482,0,0,0,1.44.63h6.93a.793.793,0,0,0,.675-1.305l-7.245-9.18c4.5-.99,6.345-4.005,6.345-8.955v-2.745c0-6.075-2.79-9.315-9.855-9.315Zm6.84,7.875c0-.405.18-.585.54-.585H65.475c2.475,0,3.285.99,3.285,3.105v1.935c0,2.115-.81,3.105-3.285,3.105H49.59Z" transform="translate(-2.52 31.5)" fill="#fff"/>
      </g>
    </g>
  </g>
</svg>
